<svg xmlns="http://www.w3.org/2000/svg" width="20" height="20" fill="none" viewBox="0 0 20 20"><path fill="#594FF4" d="M.115 5.153A5.249 5.249 0 0 1 5.153.115 119.45 119.45 0 0 1 10 0c1.596 0 3.312.05 4.847.115a5.249 5.249 0 0 1 5.038 5.038C19.95 6.688 20 8.404 20 10c0 1.596-.05 3.312-.115 4.847a5.25 5.25 0 0 1-5.038 5.038C13.312 19.95 11.596 20 10 20c-1.596 0-3.312-.05-4.847-.115a5.249 5.249 0 0 1-5.038-5.038A119.446 119.446 0 0 1 0 10c0-1.596.05-3.312.115-4.847Z"/><path fill="#fff" fill-rule="evenodd" d="M8.026 4.685c.22-.494.828-.789 1.356-.651 0 0 .265.055.805.213-.032.405.072.809.294 1.15.222.34.55.6.936.738a1.897 1.897 0 0 0 2.167-.673c.515.22.754.344.754.344.493.232.773.84.62 1.359 0 0-.442 1.632-1.354 4.124-.913 2.492-1.63 4.027-1.63 4.027-.22.493-.828.788-1.356.65a11.347 11.347 0 0 1-.8-.211 1.84 1.84 0 0 0-.291-1.15 1.865 1.865 0 0 0-.935-.74 1.894 1.894 0 0 0-1.198-.023 1.878 1.878 0 0 0-.969.7c-.518-.22-.759-.345-.763-.347-.493-.232-.773-.841-.62-1.36.003-.014.446-1.643 1.354-4.124.913-2.491 1.63-4.026 1.63-4.026Zm1.105 1.94a.67.67 0 0 0-.703.335s-.461.866-.94 2.172c-.47 1.285-.676 2.24-.676 2.244a.657.657 0 0 0 .323.703c.01.006.594.343 1.818.781 1.236.442 1.905.55 1.905.55a.67.67 0 0 0 .703-.335c.006-.011.464-.874.932-2.152.479-1.307.684-2.264.684-2.264a.656.656 0 0 0-.322-.703c-.001 0-.586-.34-1.82-.781-1.235-.442-1.904-.55-1.904-.55Z" clip-rule="evenodd"/></svg>