<svg width="100" height="100" viewBox="0 0 100 100" fill="none" xmlns="http://www.w3.org/2000/svg">
<path fill-rule="evenodd" clip-rule="evenodd" d="M39.1533 27.8943C40.0755 28.1908 41.2732 28.9849 42.1636 29.472C42.9797 29.9167 43.0115 29.8003 43.3083 30.6685C43.4885 31.2085 43.6581 31.7803 43.8277 32.3098C44.5696 34.5652 45.3434 36.8629 46.0853 39.0971C47.1029 42.2102 59.1967 78.5822 59.4405 79.8952C58.7515 79.6411 57.8294 78.974 57.151 78.561C55.9003 77.7881 56.0381 78.1163 55.4445 76.6551L49.1591 61.6404C48.1416 59.152 41.4746 42.8137 40.6902 41.829C40.1709 41.4266 39.0791 43.0043 38.4962 43.8091C36.8109 46.128 26.6355 59.5756 26.2645 60.4756C25.5968 60.3168 23.9433 59.3744 23.4875 58.9402L39.1639 27.8943H39.1533ZM40.5948 26.8354C41.623 25.9672 51.8196 20.3022 53.9606 19.0316C55.01 18.4069 55.1902 18.0151 56.3561 18.7245C57.0027 19.1163 57.9354 19.6669 58.582 19.9104C57.9884 20.7258 46.3397 27.1743 45.1208 27.8731C43.9018 28.572 44.0396 28.9426 42.7677 28.159C42.0682 27.7249 41.1672 27.3437 40.6054 26.8354H40.5948ZM21.834 59.7344C22.5971 60.2215 23.4981 60.7086 24.4202 61.2592C26.8793 62.7416 25.6816 62.5933 32.6771 58.5802L43.5309 52.2906C44.082 52.8412 52.5933 73.5844 54.1196 77.248C55.0418 79.4611 55.2962 79.1116 57.1086 80.2235C61.7724 83.1036 59.8857 83.22 65.249 80.0964C67.1674 78.974 77.8092 73.0338 78 72.4831C78.0106 71.5619 72.9123 56.2401 72.4459 55.5519C70.9832 55.3401 70.0187 55.6154 68.4076 55.2025C60.8926 53.2859 57.5008 43.7032 64.1254 37.4664C66.1605 35.5499 66.4467 36.8523 65.2808 33.2627L60.8396 19.8151C60.5746 19.3281 55.9215 16.4797 54.9994 16.755C54.5436 16.8927 52.6781 18.0786 52.1058 18.4069C48.3218 20.5775 44.5802 22.7164 40.775 24.9506C37.574 26.8248 38.6128 25.8507 36.6625 29.6838L24.6534 53.4236C24.0069 54.6942 21.7492 58.432 21.8446 59.7132L21.834 59.7344Z" fill="#4630EB"/>
<path fill-rule="evenodd" clip-rule="evenodd" d="M23.4877 58.9405C23.9434 59.3852 25.5969 60.3276 26.2647 60.4758C26.6357 59.5758 36.811 46.1388 38.4963 43.8093C39.0793 43.0045 40.2028 41.4162 40.6904 41.8292C41.4748 42.814 48.1312 59.1523 49.1593 61.6406L55.4447 76.6553C56.0277 78.1165 55.8899 77.7989 57.1512 78.5613C57.819 78.9742 58.7411 79.6413 59.4407 79.8954C59.1969 78.5824 47.1136 42.2104 46.0855 39.0973C45.3541 36.8631 44.5804 34.5654 43.8278 32.31C43.6582 31.7806 43.4886 31.2088 43.3084 30.6688C43.0117 29.8005 42.9799 29.917 42.1637 29.4722C41.2734 28.9852 40.0756 28.191 39.1535 27.8945L23.4771 58.9405H23.4877Z" fill="white"/>
<path fill-rule="evenodd" clip-rule="evenodd" d="M69.6584 40.1985C72.0115 39.5525 75.6153 41.2044 74.9793 43.2586C73.5378 47.9705 68.1215 49.3047 67.051 48.627C65.6413 47.7376 64.009 41.7444 69.6584 40.1879V40.1985ZM69.881 38.6525C61.0835 39.9973 63.3412 53.3284 71.9691 51.8248C75.2231 51.253 78.0319 48.1611 77.4065 44.2221C76.8978 40.9926 73.771 38.0595 69.881 38.6525Z" fill="#000020"/>
<path fill-rule="evenodd" clip-rule="evenodd" d="M69.6582 40.1985C64.0087 41.7551 65.641 47.7377 67.0507 48.6377C68.1213 49.3154 73.5481 47.9706 74.979 43.2692C75.6044 41.2045 72.0006 39.5632 69.6582 40.2091V40.1985ZM40.6053 26.8462C41.1565 27.3545 42.0574 27.7357 42.7676 28.1698C44.0501 28.9534 43.9017 28.5828 45.1207 27.8839C46.3502 27.1851 57.9883 20.7472 58.5818 19.9212C57.9353 19.6777 57.0025 19.1165 56.356 18.7353C55.19 18.0259 55.0099 18.4177 53.9605 19.0424C51.8194 20.313 41.6229 25.978 40.5947 26.8462H40.6053Z" fill="white"/>
</svg>
