<svg width="100" height="100" viewBox="0 0 100 100" fill="none" xmlns="http://www.w3.org/2000/svg">
<path d="M27.3335 72.6668C27.3335 66.4077 32.4077 61.3335 38.6668 61.3335H50.0002V72.6668C50.0002 78.926 44.926 84.0002 38.6668 84.0002C32.4077 84.0002 27.3335 78.926 27.3335 72.6668Z" fill="#24CB71"/>
<path d="M50 16V38.6667H61.3333C67.5925 38.6667 72.6667 33.5925 72.6667 27.3333C72.6667 21.0742 67.5925 16 61.3333 16H50Z" fill="#FF7237"/>
<path d="M61.2391 61.3332C67.4983 61.3332 72.5724 56.2591 72.5724 49.9998C72.5724 43.7406 67.4983 38.6665 61.2391 38.6665C54.9799 38.6665 49.9058 43.7406 49.9058 49.9998C49.9058 56.2591 54.9799 61.3332 61.2391 61.3332Z" fill="#00B6FF"/>
<path d="M27.3335 27.3333C27.3335 33.5925 32.4077 38.6667 38.6668 38.6667H50.0002V16H38.6668C32.4077 16 27.3335 21.0742 27.3335 27.3333Z" fill="#FF3737"/>
<path d="M27.3335 49.9998C27.3335 56.259 32.4077 61.3332 38.6668 61.3332H50.0002V38.6665H38.6668C32.4077 38.6665 27.3335 43.7407 27.3335 49.9998Z" fill="#874FFF"/>
</svg>
