<svg width="100" height="100" viewBox="0 0 100 100" fill="none" xmlns="http://www.w3.org/2000/svg">
<g clip-path="url(#clip0_77_41)">
<path d="M49.5001 56.2112C52.9951 56.2112 55.8284 53.4304 55.8284 50.0001C55.8284 46.5699 52.9951 43.7891 49.5001 43.7891C46.0051 43.7891 43.1719 46.5699 43.1719 50.0001C43.1719 53.4304 46.0051 56.2112 49.5001 56.2112Z" fill="#61DAFB"/>
<path d="M49.5 62.7251C68.2537 62.7251 83.4565 57.0279 83.4565 50C83.4565 42.9721 68.2537 37.2749 49.5 37.2749C30.7463 37.2749 15.5435 42.9721 15.5435 50C15.5435 57.0279 30.7463 62.7251 49.5 62.7251Z" stroke="#61DAFB" stroke-width="3"/>
<path d="M38.2718 56.3626C47.6487 72.303 60.2771 82.3766 66.4783 78.8627C72.6795 75.3487 70.1051 59.5779 60.7283 43.6375C51.3514 27.6971 38.723 17.6235 32.5218 21.1375C26.3206 24.6514 28.895 40.4222 38.2718 56.3626Z" stroke="#61DAFB" stroke-width="3"/>
<path d="M38.2719 43.6375C28.895 59.5779 26.3206 75.3487 32.5218 78.8627C38.723 82.3766 51.3514 72.303 60.7283 56.3626C70.1051 40.4222 72.6795 24.6514 66.4783 21.1374C60.2772 17.6235 47.6487 27.6971 38.2719 43.6375Z" stroke="#61DAFB" stroke-width="3"/>
</g>
<defs>
<clipPath id="clip0_77_41">
<rect width="71" height="62" fill="white" transform="translate(14 19)"/>
</clipPath>
</defs>
</svg>
