<svg width="100" height="100" viewBox="0 0 100 100" fill="none" xmlns="http://www.w3.org/2000/svg">
<path d="M78.5809 53.7671C75.9644 53.781 73.6903 54.4196 71.7861 55.3636C71.0875 53.9614 70.3888 52.712 70.2656 51.7957C70.1286 50.7267 69.9642 50.0742 70.1286 48.797C70.293 47.5198 71.0327 45.7012 71.019 45.5623C71.0053 45.4235 70.8546 44.771 69.3477 44.7571C67.8408 44.7433 66.5394 45.0487 66.3887 45.4513C66.238 45.8539 65.9504 46.7701 65.7586 47.7142C65.4983 49.1025 62.7448 54.0586 61.1694 56.6547C60.6625 55.6412 60.2242 54.7528 60.1283 54.0447C59.9913 52.9758 59.8269 52.3233 59.9913 51.046C60.1557 49.7688 60.8954 47.9502 60.8817 47.8114C60.868 47.6725 60.7173 47.02 59.2104 47.0061C57.7035 46.9923 56.4021 47.2977 56.2514 47.7003C56.1007 48.1029 55.9364 49.0469 55.6213 49.9632C55.3062 50.8795 51.6486 59.1536 50.6896 61.2916C50.1965 62.3883 49.7718 63.2629 49.4704 63.8599C49.4704 63.8599 49.4567 63.9015 49.4156 63.9709C49.1553 64.4846 49.0046 64.7623 49.0046 64.7623C49.0046 64.7623 49.0046 64.7622 49.0046 64.7761C48.7992 65.151 48.58 65.498 48.4704 65.498C48.3882 65.498 48.2375 64.4985 48.4978 63.138C49.0457 60.2642 50.3471 55.794 50.3335 55.6413C50.3335 55.558 50.58 54.7805 49.4841 54.3779C48.4156 53.9753 48.032 54.6417 47.9361 54.6417C47.8402 54.6417 47.7717 54.8777 47.7717 54.8777C47.7717 54.8777 48.9635 49.8521 45.4977 49.8521C43.3332 49.8521 40.3468 52.2538 38.8674 54.4196C37.9358 54.9332 35.9495 56.03 33.8261 57.21C33.0179 57.6681 32.1822 58.1263 31.4014 58.5566C31.3466 58.5011 31.2918 58.4317 31.237 58.3762C27.0451 53.8365 19.2914 50.6296 19.6202 44.535C19.7435 42.3138 20.4969 36.483 34.5111 29.4028C46.0456 23.6414 55.224 25.2379 56.8131 28.778C59.0871 33.8314 51.8951 43.2161 39.977 44.5767C35.4289 45.0903 33.0453 43.3133 32.4425 42.6469C31.8123 41.9528 31.7165 41.9112 31.4836 42.05C31.1 42.2582 31.3466 42.883 31.4836 43.2439C31.8397 44.1879 33.3055 45.8539 35.7851 46.673C37.9769 47.3949 43.3058 47.7975 49.7581 45.2708C56.9775 42.4387 62.6215 34.5672 60.9639 27.9728C59.3063 21.2813 48.3471 19.074 37.9769 22.8084C31.8123 25.0297 25.1272 28.5281 20.3188 33.0817C14.6063 38.496 13.7022 43.2023 14.0721 45.1736C15.4009 52.1706 24.9217 56.7241 28.7301 60.0976C28.5383 60.2087 28.3602 60.3059 28.2095 60.3892C26.3053 61.3471 19.0448 65.1926 17.2366 69.2603C15.1817 73.8694 17.5653 77.1735 19.1407 77.6177C24.0313 78.9921 29.0588 76.521 31.7575 72.4394C34.4563 68.3579 34.1275 63.0547 32.8809 60.6252C32.8672 60.5974 32.8535 60.5696 32.8261 60.5419C33.3192 60.2503 33.8261 59.9449 34.3193 59.6534C35.2919 59.0703 36.2508 58.5289 37.0728 58.0846C36.607 59.3757 36.2645 60.9167 36.1001 63.138C35.8947 65.7479 36.9495 69.1353 38.3331 70.4681C38.9495 71.0512 39.6756 71.065 40.1414 71.065C41.7578 71.065 42.4839 69.7045 43.2921 68.0941C44.2785 66.1228 45.1689 63.8321 45.1689 63.8321C45.1689 63.8321 44.0593 70.0238 47.0731 70.0238C48.169 70.0238 49.2786 68.58 49.7718 67.8442C49.7718 67.8581 49.7718 67.8581 49.7718 67.8581C49.7718 67.8581 49.7992 67.8165 49.854 67.7193C49.9636 67.5388 50.0321 67.4277 50.0321 67.4277C50.0321 67.4277 50.0321 67.4139 50.0321 67.4C50.4704 66.6225 51.4568 64.8594 52.9226 61.9302C54.813 58.154 56.635 53.4339 56.635 53.4339C56.635 53.4339 56.7994 54.5862 57.3611 56.502C57.6898 57.6265 58.3748 58.8621 58.9227 60.056C58.4844 60.6807 58.2104 61.0278 58.2104 61.0278C58.2104 61.0278 58.2104 61.0278 58.2241 61.0417C57.8679 61.5137 57.4843 62.0273 57.0597 62.5271C55.5665 64.3319 53.7856 66.4004 53.539 66.9974C53.2513 67.7054 53.3198 68.2191 53.8678 68.6356C54.2651 68.941 54.9774 68.9826 55.7035 68.941C57.046 68.8438 57.9912 68.5106 58.457 68.3024C59.183 68.0386 60.0324 67.636 60.8269 67.039C62.2927 65.9423 63.1831 64.3735 63.101 62.305C63.0599 61.1666 62.69 60.0282 62.2379 58.9592C62.3749 58.7649 62.4982 58.5705 62.6352 58.3762C64.9503 54.9471 66.7449 51.1849 66.7449 51.1849C66.7449 51.1849 66.9093 52.3371 67.4709 54.253C67.7449 55.2248 68.3066 56.2799 68.7998 57.3072C66.6216 59.0981 65.2791 61.1805 64.7996 62.541C63.9366 65.0677 64.6079 66.2061 65.8819 66.4698C66.4572 66.5948 67.2792 66.3171 67.8819 66.0533C68.6491 65.8035 69.5532 65.3731 70.4162 64.7345C71.882 63.6377 73.293 62.1106 73.2108 60.0421C73.1698 59.0981 72.9232 58.1679 72.5807 57.2655C74.4301 56.4881 76.8137 56.0577 79.8549 56.4187C86.3756 57.1961 87.6633 61.3193 87.4168 63.0547C87.1702 64.79 85.8003 65.734 85.3482 66.0256C84.8961 66.3171 84.7454 66.4143 84.7865 66.6225C84.8413 66.928 85.0605 66.9141 85.4441 66.8586C85.9784 66.7614 88.8689 65.4564 88.9922 62.2633C89.1976 58.1818 85.3619 53.7254 78.5809 53.7671ZM28.278 70.954C26.1135 73.3418 23.0998 74.2442 21.7983 73.4806C20.401 72.6616 20.949 69.1353 23.6066 66.6087C25.2231 65.0677 27.3054 63.6377 28.689 62.7631C29.004 62.5688 29.4698 62.2911 30.0315 61.944C30.1274 61.8885 30.1822 61.8607 30.1822 61.8607C30.2918 61.7913 30.4013 61.7219 30.5109 61.6525C31.4836 65.262 30.552 68.4412 28.278 70.954ZM44.0319 60.0976C43.2784 61.9579 41.7031 66.7197 40.7441 66.4559C39.9222 66.2338 39.4153 62.6243 40.5797 59.0564C41.1688 57.2655 42.4154 55.1276 43.1415 54.2946C44.3196 52.9619 45.621 52.5176 45.9361 53.059C46.3333 53.7671 44.4977 58.9315 44.0319 60.0976ZM57.0323 66.4004C56.7172 66.567 56.4158 66.6781 56.2788 66.5948C56.1829 66.5392 56.4158 66.3171 56.4158 66.3171C56.4158 66.3171 58.046 64.5401 58.6899 63.7349C59.0597 63.2629 59.4981 62.7076 59.9639 62.0829C59.9639 62.1384 59.9639 62.2078 59.9639 62.2633C59.9639 64.3874 57.9364 65.8173 57.0323 66.4004ZM67.06 64.082C66.8271 63.9154 66.8682 63.3601 67.649 61.6247C67.9504 60.9445 68.6628 59.8061 69.882 58.7093C70.019 59.1536 70.1149 59.584 70.1012 59.9866C70.0875 62.6659 68.197 63.6655 67.06 64.082Z" fill="#CD6799"/>
</svg>
