<svg xmlns="http://www.w3.org/2000/svg" width="20" height="20" fill="none" viewBox="0 0 20 20"><path fill="#5523E7" d="M.115 5.153A5.249 5.249 0 0 1 5.153.115 119.45 119.45 0 0 1 10 0c1.596 0 3.312.05 4.847.115a5.249 5.249 0 0 1 5.038 5.038C19.95 6.688 20 8.404 20 10c0 1.596-.05 3.312-.115 4.847a5.25 5.25 0 0 1-5.038 5.038C13.312 19.95 11.596 20 10 20c-1.596 0-3.312-.05-4.847-.115a5.249 5.249 0 0 1-5.038-5.038A119.446 119.446 0 0 1 0 10c0-1.596.05-3.312.115-4.847Z"/><path fill="#fff" fill-rule="evenodd" d="M13.36 7.765c0 .469.192.918.533 1.249.169.164.37.294.59.382.333.134.7.169 1.052.1.353-.067.677-.235.932-.482a1.76 1.76 0 0 0 .395-.573c.091-.214.138-.444.138-.676 0-.468-.192-.917-.533-1.248a1.825 1.825 0 0 0-.59-.383 1.869 1.869 0 0 0-1.984.383c-.341.331-.533.78-.533 1.248Zm.85 0a.916.916 0 0 0 .274.683 1 1 0 0 0 1.321.064.942.942 0 0 0 .346-.747c0-.25-.102-.489-.284-.666a.972.972 0 0 0-.687-.275.997.997 0 0 0-.687.275.928.928 0 0 0-.284.666ZM4.82 9.531a1.87 1.87 0 0 1-.697-.135 1.824 1.824 0 0 1-.59-.382A1.739 1.739 0 0 1 3 7.765c0-.468.192-.917.533-1.248.169-.164.37-.294.59-.383a1.87 1.87 0 0 1 1.984.383c.341.331.533.78.533 1.248 0 .469-.192.918-.533 1.249-.169.164-.37.294-.59.382a1.87 1.87 0 0 1-.697.135Zm0-.824a.999.999 0 0 1-.711-.263.916.916 0 0 1 0-1.358 1 1 0 0 1 1.373.026.927.927 0 0 1 0 1.306.985.985 0 0 1-.662.289ZM10 9.53a1.87 1.87 0 0 1-.697-.135 1.824 1.824 0 0 1-.59-.382 1.739 1.739 0 0 1-.533-1.249c0-.468.192-.917.533-1.248.169-.164.37-.294.59-.383a1.87 1.87 0 0 1 1.984.383c.341.331.533.78.533 1.248 0 .469-.192.918-.533 1.249-.169.164-.37.294-.59.382a1.87 1.87 0 0 1-.697.135Zm0-.824a.999.999 0 0 1-.711-.263.942.942 0 0 1-.298-.679.917.917 0 0 1 .298-.679 1 1 0 0 1 1.373.026.927.927 0 0 1 0 1.306.985.985 0 0 1-.662.289Zm0 2.3c.73 0 1.405.22 1.852.411-.629.626-.775 1.412-.606 2.008.184.652.73 1.073 1.39 1.074h.003c.66 0 1.207-.422 1.39-1.075.17-.595.024-1.381-.607-2.008.448-.19 1.122-.41 1.852-.41.364 0 .714.055 1.029.133.23.058.475-.055.554-.272a.394.394 0 0 0-.27-.52 5.196 5.196 0 0 0-1.314-.177c-1.403 0-2.207.443-2.636.69-.438-.23-1.353-.69-2.637-.69-1.314 0-2.198.459-2.637.69-.45-.26-1.219-.69-2.637-.69-.472 0-.918.074-1.312.177a.394.394 0 0 0-.27.52c.078.217.323.33.552.272a4.287 4.287 0 0 1 1.03-.133c.73 0 1.404.22 1.852.411-.63.626-.776 1.412-.608 2.008.185.652.73 1.073 1.391 1.074h.002c.661 0 1.207-.422 1.391-1.075.168-.595.023-1.381-.606-2.008.447-.19 1.122-.41 1.852-.41Zm2.638.843c.54.416.683.96.572 1.352-.039.139-.173.461-.572.461-.399 0-.534-.322-.573-.461-.11-.392.034-.936.572-1.352h.001Zm-5.276 0c-.54.416-.683.96-.572 1.352.039.139.173.461.572.461.399 0 .533-.322.572-.461.11-.392-.032-.936-.572-1.352Z" clip-rule="evenodd"/></svg>